# xmcd
#
# Track frame offsets:
# 150
# 18045
# 31755
# 40512
# 52214
# 65317
# 78829
# 90776
# 104155
# 118856
# 130860
# 146655
# 162271
# 177311
# 187367
# 205252
# 224730
#
# Disc length: 3158 seconds
#
# Revision: 0
# Processed by: cddbd v1.4PL0 Copyright (c) Steve Scherf et al.
# Submitted via: MacMP3 Pro 5.0 (http://mp3.act2.co.jp/)
#
DISCID=f10c5411
DTITLE=…_≈[…N≈E…_…b…N…X - …_≈[…N≈E…_…b…N…X Û<sum>«...‚√«ß ÈR«...‚√«ß
DYEAR=1900
DGENRE=
TTITLE0=ÌmË?Û<sum>Ë”
TTITLE1=‰?Ó^Ô†Û<sum>Ë”
TTITLE2=ÔlÔ"«√‚√
TTITLE3=Í∑«√Á~«»‰X«?
TTITLE4=Î≈ËtÔ‰
TTITLE5=«©«?«>=«“«√‚√
TTITLE6=«¯«¢«>=«¢ËH«>«¨«ÿ«?
TTITLE7=‚Ï«!=«˜Ás«¥«?«¢
TTITLE8=Í∑ÈRÈ^‚√
TTITLE9=…G≈[…f…„…Ë…C…X
TTITLE10=«µ«∑«Õ«±«ß«?«?Î¬ÒC
TTITLE11=ÈR«√…Á…U…‰…A
TTITLE12=ÒkË?Ò»„ª
TTITLE13=ÈRÌj«√‚√
TTITLE14=«ÆÔÕ«>=«“«<=«fl«“«ª«>=«¢
TTITLE15=Í∑ÈR«...Ë°«∂«?«?«¢«¨
TTITLE16=«’«»«©«ªÛF«...
EXTD=
EXTT0=
EXTT1=
EXTT2=
EXTT3=
EXTT4=
EXTT5=
EXTT6=
EXTT7=
EXTT8=
EXTT9=
EXTT10=
EXTT11=
EXTT12=
EXTT13=
EXTT14=
EXTT15=
EXTT16=
PLAYORDER=
